<svg xmlns="http://www.w3.org/2000/svg" viewBox="0 0 100 100">
  <defs>
    <linearGradient id="brainGradient" x1="0%" y1="0%" x2="100%" y2="100%">
      <stop offset="0%" style="stop-color:#3b82f6;stop-opacity:1" />
      <stop offset="100%" style="stop-color:#1d4ed8;stop-opacity:1" />
    </linearGradient>
    <linearGradient id="sparkleGradient" x1="0%" y1="0%" x2="100%" y2="100%">
      <stop offset="0%" style="stop-color:#fbbf24;stop-opacity:1" />
      <stop offset="100%" style="stop-color:#f59e0b;stop-opacity:1" />
    </linearGradient>
  </defs>
  
  <!-- Background Circle -->
  <circle cx="50" cy="50" r="45" fill="url(#brainGradient)" opacity="0.1"/>
  
  <!-- Brain Shape -->
  <path d="M30 40 Q25 35 30 30 Q35 25 45 30 Q55 25 65 30 Q70 35 65 40 Q70 45 65 50 Q70 55 65 60 Q60 65 50 60 Q40 65 35 60 Q30 55 35 50 Q30 45 30 40 Z" 
        fill="url(#brainGradient)" 
        stroke="white" 
        stroke-width="2"/>
  
  <!-- Brain Details -->
  <path d="M35 35 Q40 40 45 35" fill="none" stroke="white" stroke-width="1.5" opacity="0.8"/>
  <path d="M55 35 Q60 40 65 35" fill="none" stroke="white" stroke-width="1.5" opacity="0.8"/>
  <path d="M40 45 Q45 50 50 45" fill="none" stroke="white" stroke-width="1.5" opacity="0.8"/>
  <path d="M50 45 Q55 50 60 45" fill="none" stroke="white" stroke-width="1.5" opacity="0.8"/>
  
  <!-- Neural Connections -->
  <circle cx="38" cy="38" r="2" fill="white" opacity="0.9"/>
  <circle cx="50" cy="42" r="2" fill="white" opacity="0.9"/>
  <circle cx="62" cy="38" r="2" fill="white" opacity="0.9"/>
  <circle cx="45" cy="52" r="2" fill="white" opacity="0.9"/>
  <circle cx="55" cy="52" r="2" fill="white" opacity="0.9"/>
  
  <!-- Sparkle Effects -->
  <g fill="url(#sparkleGradient)">
    <path d="M20 25 L22 28 L25 25 L22 22 Z" opacity="0.8"/>
    <path d="M75 30 L77 33 L80 30 L77 27 Z" opacity="0.8"/>
    <path d="M25 70 L27 73 L30 70 L27 67 Z" opacity="0.8"/>
    <path d="M80 65 L82 68 L85 65 L82 62 Z" opacity="0.8"/>
  </g>
  
  <!-- Orbiting Dots -->
  <g>
    <circle cx="50" cy="15" r="1.5" fill="#3b82f6" opacity="0.6">
      <animateTransform attributeName="transform" type="rotate" values="0 50 50;360 50 50" dur="8s" repeatCount="indefinite"/>
    </circle>
    <circle cx="85" cy="50" r="1.5" fill="#3b82f6" opacity="0.6">
      <animateTransform attributeName="transform" type="rotate" values="90 50 50;450 50 50" dur="8s" repeatCount="indefinite"/>
    </circle>
    <circle cx="50" cy="85" r="1.5" fill="#3b82f6" opacity="0.6">
      <animateTransform attributeName="transform" type="rotate" values="180 50 50;540 50 50" dur="8s" repeatCount="indefinite"/>
    </circle>
    <circle cx="15" cy="50" r="1.5" fill="#3b82f6" opacity="0.6">
      <animateTransform attributeName="transform" type="rotate" values="270 50 50;630 50 50" dur="8s" repeatCount="indefinite"/>
    </circle>
  </g>
</svg>
